<svg xmlns="http://www.w3.org/2000/svg" viewBox="0 0 100 100" width="100" height="100">
  <!-- Background circle -->
  <circle cx="50" cy="50" r="46" fill="#16213e" stroke="#4ecca3" stroke-width="3"/>

  <!-- Pulse line around the circle -->
  <path d="M 8 50
           L 20 50
           L 25 50
           L 30 35
           L 35 65
           L 40 45
           L 45 55
           L 50 50
           L 55 50
           L 60 50
           L 65 35
           L 70 65
           L 75 45
           L 80 55
           L 85 50
           L 92 50"
        fill="none"
        stroke="#4ecca3"
        stroke-width="2.5"
        stroke-linecap="round"
        stroke-linejoin="round"
        opacity="0.4"/>

  <!-- Child silhouette - simple and recognizable -->
  <g fill="#4ecca3">
    <!-- Head -->
    <circle cx="50" cy="32" r="10"/>
    <!-- Body -->
    <path d="M 50 42
             C 38 44, 35 55, 35 65
             L 35 75
             L 42 75
             L 44 60
             L 50 58
             L 56 60
             L 58 75
             L 65 75
             L 65 65
             C 65 55, 62 44, 50 42
             Z"/>
  </g>
</svg>
